PathFileType	4	(X/Y/Z)	C:\Users\WrightLab\Desktop\Jo\P2_Trial28.trc
DataRate	CameraRate	NumFrames	NumMarkers	Units	OrigDataRate	OrigDataStartFrame	OrigNumFrames
100.00	100.00	       8	19	mm	100.00	119	       472
Frame#	Time	Headset_Front			Headset_Back			Headset_Left			Headset_Right			Left_Shoulder			Right_Shoulder			Sternum			C7			Left Elbow			Right Elbow			Left Wrist			Right Wrist			Left ASIS			Right ASIS			S2			Left Knee			Right Knee			Left Ankle			Right Ankle			
		X1	Y1	Z1	X2	Y2	Z2	X3	Y3	Z3	X4	Y4	Z4	X5	Y5	Z5	X6	Y6	Z6	X7	Y7	Z7	X8	Y8	Z8	X9	Y9	Z9	X10	Y10	Z10	X11	Y11	Z11	X12	Y12	Z12	X13	Y13	Z13	X14	Y14	Z14	X15	Y15	Z15	X16	Y16	Z16	X17	Y17	Z17	X18	Y18	Z18	X19	Y19	Z19	

119	1.180	-672.99426	1435.81287	-570.31805	-579.73718	1590.75903	-707.66064	-465.49179	1469.43872	-661.48260	-563.15967	1339.84436	-529.64697	-452.20374	1355.39404	-745.31427	-761.20258	1371.56335	-792.37592	-625.84937	1236.74854	-714.01709	-604.07446	1366.64111	-880.10315	-323.04877	1023.76465	-803.72577	-898.51880	1087.89990	-907.50085	-257.47092	795.27155	-863.39825	-1006.13672	862.92169	-918.63660	-584.32947	963.32068	-708.49341	-714.51154	952.29913	-751.72400	-556.79175	885.80164	-976.64465	-551.22162	436.77829	-601.96735	-740.68256	497.77060	-1063.28052	-575.23993	91.39260	-523.84937				
120	1.190	-672.36145	1437.95264	-558.76685	-580.92834	1594.14551	-696.95935	-466.66769	1473.06226	-650.80359	-565.06799	1343.34412	-518.59381	-453.63318	1359.56897	-734.97754	-762.10382	1375.05298	-781.63275	-626.90375	1241.09167	-701.92310	-605.45764	1369.49951	-869.31567	-324.48477	1026.71570	-789.11298	-898.46967	1090.87598	-895.60114	-257.71960	797.68298	-848.54578	-1007.00378	866.76489	-909.06409	-585.58734	966.54755	-697.94373	-715.17249	955.23499	-739.73236	-558.66803	888.29065	-965.42206	-549.03070	437.26349	-593.11572	-742.00946	498.84543	-1042.60095	-576.42059	91.17745	-519.56537	-645.94415	410.61707	-712.09332	
121	1.200	-673.33868	1441.13245	-547.73901	-582.21753	1597.77649	-687.16736	-467.48917	1475.75317	-641.61450	-565.48431	1347.40381	-509.98730	-454.71103	1363.52563	-726.22906	-764.20410	1378.89355	-770.61810	-628.55084	1244.93665	-689.23077	-606.91248	1372.47473	-858.72522	-323.78964	1030.59863	-774.62183	-898.84900	1094.28284	-883.74518	-260.13135	800.02881	-824.26788	-1009.12146	870.86334	-899.01093	-587.06439	969.03784	-687.98340	-715.64050	958.22424	-729.26245	-559.88586	891.68610	-954.18884	-546.52606	436.43134	-588.38159	-743.52789	500.60028	-1022.56348	-578.94434	90.34891	-516.72577				
122	1.210	-675.17365	1445.13696	-537.57263	-583.72479	1601.37097	-676.77423	-469.00159	1479.80615	-632.47021	-565.24799	1350.95801	-502.75156	-455.87399	1367.25256	-715.11389	-765.19336	1383.92090	-759.28534	-630.41229	1249.62988	-678.38287	-608.36310	1375.76599	-848.05255	-324.72278	1034.51953	-760.26849	-899.90723	1097.89136	-872.96490	-260.15182	802.25739	-807.53229	-1011.05695	874.52185	-888.94269	-587.83606	971.55762	-676.39221	-716.82880	960.99341	-717.11591	-560.82043	895.50989	-943.12952	-543.64856	435.77444	-586.30353	-744.52173	501.78146	-1002.13269	-580.98840	90.42500	-514.38940				
123	1.220	-676.18848	1449.34998	-527.09052	-585.10876	1605.40381	-666.50049	-469.84824	1484.14343	-622.42236	-566.82196	1355.60229	-489.89581	-457.04147	1371.13647	-703.92096	-766.62585	1387.59766	-748.60059	-631.47644	1253.55188	-667.97266	-609.88464	1379.14758	-837.61078	-326.95758	1037.28040	-745.17444	-901.25714	1101.84851	-862.71136	-261.14035	806.10248	-790.31415	-1013.06848	878.67566	-878.89221	-587.75531	974.61725	-667.25970	-717.70062	963.46204	-705.71027	-561.71313	899.60828	-932.69202	-540.82959	434.32849	-584.37299	-744.89514	503.32098	-982.65833	-582.72253	89.78178	-512.13788				
124	1.230	-677.85889	1454.18066	-517.51599	-586.53424	1609.60449	-656.50049	-471.22083	1488.59644	-612.48792	-569.15851	1359.21191	-479.75467	-458.39468	1374.67786	-696.23505	-767.99323	1391.16907	-738.26428	-632.36932	1257.80310	-657.10767	-611.40637	1382.66968	-827.61322	-327.06485	1041.40503	-731.65515	-903.01550	1105.39355	-852.95978	-458.04779	1031.99023	-464.67776	-1015.35736	882.46204	-868.82605	-587.91742	978.57739	-652.32257	-718.44586	967.44812	-695.29852	-562.73785	903.38550	-922.03485	-534.00592	435.13617	-579.45178	-745.79401	503.48947	-962.10406	-584.41248	89.07590	-510.50391	-244.09401	678.52222	-748.61462	
125	1.240	-678.13641	1458.22876	-507.11823				-472.96802	1492.24341	-602.42926	-569.12616	1363.06396	-472.99799	-459.54697	1379.51038	-688.17230	-769.16718	1392.59924	-728.73029	-632.77283	1261.90454	-646.26642	-612.93408	1386.15955	-817.75549	-327.77588	1046.34473	-718.78790	-905.19708	1108.85364	-843.27637	-265.30869	815.56500	-733.11890	-1017.36920	886.07251	-858.85437	-590.16370	981.55212	-645.92682	-719.02234	970.16943	-683.69159	-563.80005	906.62250	-910.93677	-529.99786	433.41266	-576.81189	-746.12244	503.11044	-940.41333	-584.65442	88.45498	-510.21481				
126	1.250	-679.37415	1462.44312	-496.79367	-589.57648	1617.98633	-637.28711	-474.30228	1496.81128	-594.02960	-570.62347	1368.66943	-462.05038	-460.59836	1384.23450	-679.66333	-770.95105	1396.69250	-719.34601	-634.08881	1266.36487	-635.94049	-614.29413	1389.81665	-808.11432	-330.58804	1050.79346	-705.70197	-907.44501	1112.60095	-833.71057	-267.56641	818.99927	-726.35101	-1019.18152	889.49829	-848.86981	-589.53253	985.60840	-634.43127	-719.03723	973.29749	-673.72479	-564.99078	910.09796	-900.43835	-525.94067	432.14484	-576.09277	-747.13470	503.80664	-918.56396	-584.67712	88.02438	-507.67197				
